<svg width="228" height="56" viewBox="0 0 228 56" fill="none" xmlns="http://www.w3.org/2000/svg">
<path d="M66.2217 25.5674C66.2217 23.5508 66.592 21.7051 67.3325 20.0303C68.0731 18.3555 69.1099 16.9199 70.4429 15.7236C71.7873 14.516 73.3937 13.5817 75.2622 12.9209C77.1421 12.2601 79.2214 11.9297 81.5 11.9297C83.7673 11.9297 85.8408 12.2601 87.7207 12.9209C89.6006 13.5817 91.207 14.516 92.54 15.7236C93.8844 16.9199 94.9269 18.3555 95.6675 20.0303C96.408 21.7051 96.7783 23.5508 96.7783 25.5674C96.7783 27.3675 96.4821 29.0366 95.8896 30.5747C95.3086 32.1014 94.4826 33.4572 93.4116 34.6421L98.2139 39H91.3438L89.686 37.4961C88.5239 38.1113 87.2593 38.5785 85.8921 38.8975C84.5249 39.2165 83.0609 39.376 81.5 39.376C79.2214 39.376 77.1421 39.0399 75.2622 38.3677C73.3937 37.6841 71.7873 36.7327 70.4429 35.5137C69.1099 34.2946 68.0731 32.842 67.3325 31.1558C66.592 29.4582 66.2217 27.5954 66.2217 25.5674ZM71.6392 25.5674C71.6392 26.946 71.8841 28.1878 72.374 29.293C72.8753 30.3981 73.5646 31.3438 74.4419 32.1299C75.3306 32.9046 76.373 33.5028 77.5693 33.9243C78.777 34.3459 80.0872 34.5566 81.5 34.5566C83.0153 34.5566 84.3996 34.3174 85.6528 33.8389L77.9966 26.9004H84.8667L89.5151 31.1216C90.0962 30.381 90.5462 29.5493 90.8652 28.6265C91.1956 27.6922 91.3608 26.6725 91.3608 25.5674C91.3608 24.1888 91.1102 22.9526 90.6089 21.8589C90.1076 20.7651 89.4183 19.8423 88.541 19.0903C87.6637 18.327 86.6213 17.7459 85.4136 17.3472C84.2173 16.9484 82.9128 16.749 81.5 16.749C80.0872 16.749 78.777 16.9484 77.5693 17.3472C76.373 17.7459 75.3306 18.327 74.4419 19.0903C73.5646 19.8423 72.8753 20.7651 72.374 21.8589C71.8841 22.9526 71.6392 24.1888 71.6392 25.5674ZM101.786 12.2886H107.203V27.0029C107.203 28.2106 107.368 29.2873 107.699 30.2329C108.029 31.1672 108.519 31.959 109.168 32.6084C109.829 33.2578 110.644 33.7534 111.612 34.0952C112.581 34.4256 113.709 34.5908 114.996 34.5908C116.272 34.5908 117.394 34.4256 118.363 34.0952C119.343 33.7534 120.157 33.2578 120.807 32.6084C121.467 31.959 121.963 31.1672 122.293 30.2329C122.624 29.2873 122.789 28.2106 122.789 27.0029V12.2886H128.207V27.6523C128.207 29.4069 127.91 31.002 127.318 32.4375C126.725 33.873 125.865 35.1035 124.737 36.1289C123.609 37.1543 122.225 37.9461 120.584 38.5044C118.955 39.0627 117.092 39.3418 114.996 39.3418C112.9 39.3418 111.031 39.0627 109.391 38.5044C107.761 37.9461 106.383 37.1543 105.255 36.1289C104.127 35.1035 103.267 33.873 102.674 32.4375C102.082 31.002 101.786 29.4069 101.786 27.6523V12.2886ZM134.137 12.2886H139.588V39H134.137V12.2886ZM158.797 20.0303L161.361 16.9028H145.313V12.2886H171.444L156.49 31.0703L153.824 34.3857H170.606V39H143.998L158.797 20.0303ZM175.733 12.2886H181.151V34.249H196.686V39H175.733V12.2886ZM210.135 32.3862L198.463 12.2886H204.598L212.818 27.4814L220.936 12.2886H227.071L215.553 32.3521V39H210.135V32.3862Z" fill="white"/>
<path d="M10.9874 37.1127L22.003 30.9556L22.1874 30.4189L22.003 30.1223H21.4644L19.6212 30.0095L13.3267 29.8399L7.86844 29.614L2.58016 29.3316L1.24753 29.049L0 27.4108L0.127531 26.5917L1.24753 25.8435L2.84966 25.9847L6.39384 26.2246L11.7103 26.5917L15.5667 26.8177L21.28 27.4108H22.1874L22.3149 27.0436L22.003 26.8177L21.7621 26.5917L16.2612 22.8776L10.3068 18.9517L7.18791 16.6921L5.50069 15.5482L4.65019 14.475L4.28159 12.1309L5.81284 10.4502L7.86844 10.5916L8.393 10.7328L10.477 12.3285L14.9286 15.7604L20.7412 20.0249L21.5919 20.7309L21.9321 20.4908L21.9748 20.3215L21.5919 19.6859L18.4303 13.9948L15.0561 8.20476L13.5533 5.80395L13.1565 4.36364C13.0148 3.7703 12.9154 3.27611 12.9154 2.66882L14.6593 0.310506L15.6231 0L17.9484 0.310724L18.9267 1.15791L20.3726 4.4484L22.7119 9.63135L26.3412 16.6782L27.4046 18.7683L27.9716 20.703L28.1844 21.2961H28.553V20.9571L28.8505 16.9889L29.4035 12.1167L29.9423 5.84644L30.1267 4.08146L31.0056 1.96305L32.7493 0.819082L34.1103 1.46864L35.2303 3.06453L35.0744 4.09519L34.4081 8.40261L33.1039 15.1531L32.2532 19.6721H32.7493L33.3165 19.1071L35.6132 16.0709L39.4693 11.2693L41.1707 9.3629L43.1554 7.25865L44.4314 6.25609H46.8416L48.6135 8.88286L47.8198 11.5942L45.3388 14.7293L43.283 17.3842L40.3342 21.3384L38.491 24.5019L38.6612 24.7559L39.1009 24.7136L45.764 23.3014L49.3651 22.6517L53.6607 21.9174L55.6032 22.8212L55.8156 23.7392L55.05 25.6175L50.4567 26.7471L45.0693 27.8205L37.0451 29.7129L36.9458 29.7835L37.0593 29.9247L40.6744 30.2635L42.2198 30.3483H46.0051L53.051 30.8708L54.8942 32.0854L56 33.5682L55.8156 34.6978L52.9802 36.1383L49.1525 35.2345L40.2209 33.1163L37.1584 32.3536H36.7332V32.6079L39.2851 35.0933L43.9635 39.3018L49.8188 44.7246L50.1163 46.0662L49.3651 47.1252L48.571 47.0123L43.4247 43.157L41.44 41.42L36.9458 37.6494H36.6483V38.0447L37.683 39.5558L43.1554 47.7466L43.4389 50.2603L43.0421 51.0796L41.6244 51.5738L40.0647 51.2912L36.8607 46.8147L33.5576 41.7729L30.8921 37.2539L30.5662 37.4376L28.9925 54.3135L28.2553 55.1748L26.5538 55.8244L25.1363 54.7512L24.3847 53.0141L25.1361 49.5824L26.0435 45.1059L26.7807 41.547L27.447 37.1269L27.844 35.6583L27.8156 35.5593L27.4897 35.6016L24.1439 40.1773L19.0542 47.0265L15.0279 51.3195L14.0639 51.7009L12.3909 50.8393L12.5468 49.3L13.4824 47.9303L19.054 40.8693L22.414 36.4913L24.5833 33.9637L24.5691 33.5963H24.4416L9.64031 43.1712L7.00328 43.51L5.86906 42.4511L6.01081 40.714L6.54959 40.1489L11.0012 37.0986L10.9874 37.1127Z" fill="white"/>
</svg>
